HIERARCHY
ROOT Hips
{
	OFFSET 0.000000 0.000000 0.000000
	CHANNELS 6 Xposition Yposition Zposition Xrotation Yrotation Zrotation
	JOINT Spine
	{
		OFFSET 0.000000 0.053497 0.080245
		CHANNELS 3 Xrotation Yrotation Zrotation
		JOINT Spine1
		{
			OFFSET 0.000000 0.018579 0.105368
			CHANNELS 3 Xrotation Yrotation Zrotation
			JOINT Spine2
			{
				OFFSET 0.000000 0.009325 0.106586
				CHANNELS 3 Xrotation Yrotation Zrotation
				JOINT Spine3
				{
					OFFSET 0.000000 0.000000 0.106993
					CHANNELS 3 Xrotation Yrotation Zrotation
					JOINT Neck
					{
						OFFSET 0.000000 -0.040122 0.280858
						CHANNELS 3 Xrotation Yrotation Zrotation
						JOINT Head
						{
							OFFSET 0.000000 -0.025546 0.144881
							CHANNELS 3 Xrotation Yrotation Zrotation
							End Site
							{
								OFFSET 0.000000 0.000000 0.000000
							}
						}
					}
					JOINT RightShoulder
					{
						OFFSET -0.032541 -0.054234 0.175720
						CHANNELS 3 Xrotation Yrotation Zrotation
						JOINT RightArm
						{
							OFFSET -0.161619 0.000000 0.000000
							CHANNELS 3 Xrotation Yrotation Zrotation
							JOINT RightForeArm
							{
								OFFSET -0.257104 0.000000 0.000000
								CHANNELS 3 Xrotation Yrotation Zrotation
								JOINT RightHand
								{
									OFFSET -0.273485 0.000000 0.000000
									CHANNELS 3 Xrotation Yrotation Zrotation
									JOINT RightHandEnd
									{
										OFFSET -0.070844 0.000000 0.000000
										CHANNELS 3 Xrotation Yrotation Zrotation
										End Site
										{
											OFFSET 0.000000 0.000000 0.000000
										}
									}
									JOINT RightHandThumb1
									{
										OFFSET -0.028338 -0.047230 -0.018892
										CHANNELS 3 Xrotation Yrotation Zrotation
										End Site
										{
											OFFSET 0.000000 0.000000 0.000000
										}
									}
								}
							}
						}
					}
					JOINT LeftShoulder
					{
						OFFSET 0.032541 -0.054234 0.175720
						CHANNELS 3 Xrotation Yrotation Zrotation
						JOINT LeftArm
						{
							OFFSET 0.161619 0.000000 0.000000
							CHANNELS 3 Xrotation Yrotation Zrotation
							JOINT LeftForeArm
							{
								OFFSET 0.257104 0.000000 0.000000
								CHANNELS 3 Xrotation Yrotation Zrotation
								JOINT LeftHand
								{
									OFFSET 0.273485 0.000000 0.000000
									CHANNELS 3 Xrotation Yrotation Zrotation
									JOINT LeftHandEnd
									{
										OFFSET 0.070844 0.000000 0.000000
										CHANNELS 3 Xrotation Yrotation Zrotation
										End Site
										{
											OFFSET 0.000000 0.000000 0.000000
										}
									}
									JOINT LeftHandThumb1
									{
										OFFSET 0.028338 -0.047230 -0.018892
										CHANNELS 3 Xrotation Yrotation Zrotation
										End Site
										{
											OFFSET 0.000000 0.000000 0.000000
										}
									}
								}
							}
						}
					}
				}
			}
		}
	}
	JOINT RightUpLeg
	{
		OFFSET -0.096537 0.000000 -0.028202
		CHANNELS 3 Xrotation Yrotation Zrotation
		JOINT RightLeg
		{
			OFFSET 0.000000 0.000000 -0.431842
			CHANNELS 3 Xrotation Yrotation Zrotation
			JOINT RightFoot
			{
				OFFSET 0.000000 0.000000 -0.456398
				CHANNELS 3 Xrotation Yrotation Zrotation
				JOINT RightToeBase
				{
					OFFSET 0.000000 -0.128905 -0.046918
					CHANNELS 3 Xrotation Yrotation Zrotation
					End Site
					{
						OFFSET 0.000000 0.000000 0.000000
					}
				}
			}
		}
	}
	JOINT LeftUpLeg
	{
		OFFSET 0.096537 0.000000 -0.028202
		CHANNELS 3 Xrotation Yrotation Zrotation
		JOINT LeftLeg
		{
			OFFSET 0.000000 0.000000 -0.431842
			CHANNELS 3 Xrotation Yrotation Zrotation
			JOINT LeftFoot
			{
				OFFSET 0.000000 0.000000 -0.456398
				CHANNELS 3 Xrotation Yrotation Zrotation
				JOINT LeftToeBase
				{
					OFFSET 0.000000 -0.128905 -0.046918
					CHANNELS 3 Xrotation Yrotation Zrotation
					End Site
					{
						OFFSET 0.000000 0.000000 0.000000
					}
				}
			}
		}
	}
}
MOTION
Frames: 8
Frame Time: 0.033333
0.348102 -0.067041 0.262727 -15.868800 -76.747400 -113.984000 -0.135900 -1.293200 0.531000 -0.025900 -2.059700 0.215200 9.165600 1.532200 5.671400 1.995000 -0.903800 0.917000 -3.159200 5.041600 -0.591300 0.311900 -2.845800 -7.689400 -4.302900 -3.015000 23.187600 -49.754500 -45.460400 8.899800 0.000000 0.000100 99.947100 62.781200 19.843000 -16.942100 0.000000 0.000000 0.000000 0.000000 0.000000 0.000000 -4.819600 8.690300 -28.455600 -29.709900 52.207400 -35.742300 -0.000100 -0.000100 -95.975500 63.832300 -23.357600 9.841400 0.000000 0.000000 0.000000 0.000000 0.000000 0.000000 -10.612800 0.163400 -0.000700 30.826500 0.000000 0.000000 -36.373700 -5.000500 -8.178700 -40.311300 0.000000 0.000000 -4.639500 5.098100 -3.895500 20.628500 0.000000 0.000000 -34.110600 34.816900 13.429000 -64.493600 0.000000 0.000000 
0.347746 -0.066355 0.262039 -16.314000 -76.654000 -114.421500 -0.208700 -1.239300 0.525400 -0.074400 -2.048100 0.213300 9.268700 1.585900 5.689500 2.007600 -0.930600 0.929300 -3.469800 4.595900 -0.193900 0.387000 -2.492100 -7.008700 -4.249700 -2.991800 23.245700 -49.500200 -45.468600 9.061200 0.000000 0.000100 100.181800 63.085300 19.464000 -17.399000 0.000000 0.000000 0.000000 0.000000 0.000000 0.000000 -4.710200 8.854200 -28.468300 -29.802300 51.970700 -35.650200 -0.000100 -0.000100 -95.956700 63.329700 -23.810300 9.678300 0.000000 0.000000 0.000000 0.000000 0.000000 0.000000 -10.533700 0.191900 0.106200 30.872700 0.000000 0.000000 -36.396800 -4.600900 -8.367500 -40.081300 0.000000 0.000000 -4.518400 5.204000 -3.847900 20.590100 0.000000 0.000000 -34.047100 34.781300 13.538600 -64.547900 0.000000 0.000000 
0.347241 -0.065357 0.261112 -16.407000 -76.537400 -114.498800 -0.270700 -1.200800 0.525400 -0.119400 -2.033600 0.214200 9.370600 1.602500 5.728900 2.013100 -0.978400 0.969200 -3.864700 4.025200 0.283300 0.571100 -2.044700 -6.165800 -4.145700 -2.952900 23.278000 -49.365000 -45.485000 9.090100 0.000000 0.000100 100.444400 63.221400 18.969200 -17.806200 0.000000 0.000000 0.000000 0.000000 0.000000 0.000000 -4.549600 9.025600 -28.580200 -29.732500 51.686300 -35.705600 -0.000100 -0.000100 -95.831200 64.330500 -24.266600 10.187700 0.000000 0.000000 0.000000 0.000000 0.000000 0.000000 -10.337300 0.197500 0.116300 30.840500 0.000000 0.000000 -36.341300 -4.238300 -8.335100 -39.964600 0.000000 0.000000 -4.367800 5.241400 -3.889400 20.639800 0.000000 0.000000 -34.026600 34.717600 13.694900 -64.579200 0.000000 0.000000 
0.346796 -0.064226 0.260096 -16.260100 -76.514500 -114.322800 -0.373200 -1.193700 0.528600 -0.174600 -2.036300 0.212300 9.434400 1.593900 5.767000 2.002500 -1.061900 1.032900 -4.415600 3.266000 0.994400 0.910400 -1.325300 -4.950700 -4.022800 -2.871100 23.263000 -49.313600 -45.541600 8.994700 0.000000 0.000100 100.688700 63.220500 18.529200 -18.140800 0.000000 0.000000 0.000000 0.000000 0.000000 0.000000 -4.377100 9.204900 -28.728600 -29.323400 51.342600 -35.965400 -0.000100 -0.000100 -95.718300 67.307700 -25.669300 12.042000 0.000000 0.000000 0.000000 0.000000 0.000000 0.000000 -10.179600 0.170600 0.059100 30.773000 0.000000 0.000000 -36.289300 -4.207600 -8.119800 -40.095300 0.000000 0.000000 -4.294100 5.195800 -3.966200 20.726400 0.000000 0.000000 -34.120700 34.633800 13.894500 -64.341000 0.000000 0.000000 
0.346405 -0.063160 0.258915 -15.990600 -76.515900 -113.998200 -0.473600 -1.193700 0.531400 -0.240600 -2.049700 0.206300 9.478500 1.597600 5.779500 1.993000 -1.172500 1.100300 -4.941500 2.308300 1.966700 1.263900 -0.287500 -3.251900 -3.910300 -2.771800 23.200100 -49.295000 -45.627200 8.851800 0.000000 0.000100 100.860900 63.282500 18.272800 -18.402000 0.000000 0.000000 0.000000 0.000000 0.000000 0.000000 -4.233100 9.441200 -28.865600 -28.723100 50.934800 -36.258100 -0.000100 -0.000100 -95.736100 69.961800 -28.917000 14.951100 0.000000 0.000000 0.000000 0.000000 0.000000 0.000000 -10.037800 0.150600 0.048400 30.735700 0.000000 0.000000 -36.277900 -4.522400 -7.832000 -40.506800 0.000000 0.000000 -4.201900 5.144200 -4.020200 20.781900 0.000000 0.000000 -34.341100 34.488000 14.233600 -63.940200 0.000000 0.000000 
0.346017 -0.062273 0.257604 -15.754900 -76.464800 -113.656700 -0.563200 -1.166000 0.524800 -0.305300 -2.058900 0.200700 9.544100 1.604700 5.748100 2.003800 -1.302500 1.180200 -5.160200 1.278500 3.145700 1.508900 0.973800 -1.163800 -3.807100 -2.665100 23.087200 -49.289300 -45.741800 8.766600 0.000000 0.000100 100.896700 63.540600 18.235700 -18.566000 0.000000 0.000000 0.000000 0.000000 0.000000 0.000000 -4.119500 9.746900 -29.000600 -28.284200 50.538400 -36.385000 -0.000100 -0.000100 -95.847600 70.254100 -32.418400 17.853800 0.000000 0.000000 0.000000 0.000000 0.000000 0.000000 -9.874400 0.182200 0.115500 30.763300 0.000000 0.000000 -36.252200 -4.867600 -7.490100 -41.088700 0.000000 0.000000 -4.053400 5.163800 -3.979300 20.837200 0.000000 0.000000 -34.629700 34.267100 14.731800 -63.699700 0.000000 0.000000 
0.345669 -0.061506 0.256281 -15.560300 -76.366700 -113.319200 -0.631200 -1.128200 0.522300 -0.357300 -2.044800 0.196600 9.610300 1.554700 5.709400 2.023600 -1.446400 1.274600 -4.976300 0.258900 4.456300 1.690200 2.415700 1.091600 -3.704200 -2.488300 22.906700 -49.292300 -45.937500 8.745900 0.000000 0.000100 100.817100 63.904200 18.414600 -18.645100 0.000000 0.000000 0.000000 0.000000 0.000000 0.000000 -4.014900 10.099500 -29.167300 -28.091800 50.195700 -36.366200 -0.000100 -0.000100 -95.924600 69.136800 -32.847400 19.844800 0.000000 0.000000 0.000000 0.000000 0.000000 0.000000 -9.685700 0.235500 0.227500 30.822900 0.000000 0.000000 -36.163400 -5.003900 -7.094800 -41.696700 0.000000 0.000000 -3.876100 5.229400 -3.786700 20.914000 0.000000 0.000000 -34.917300 34.022100 15.236400 -63.709800 0.000000 0.000000 
0.345430 -0.060759 0.254998 -15.426400 -76.294000 -113.019300 -0.680000 -1.090300 0.518400 -0.394600 -2.016300 0.193500 9.615500 1.427300 5.680700 2.033800 -1.601900 1.387200 -4.546000 -0.829300 5.808300 1.894500 4.025200 3.333800 -3.604600 -2.221800 22.640600 -49.237100 -46.240400 8.791500 0.000000 0.000100 100.723300 64.203600 18.781100 -18.676000 0.000000 0.000000 0.000000 0.000000 0.000000 0.000000 -3.874600 10.461500 -29.332400 -27.931100 49.869100 -36.448000 -0.000100 -0.000100 -95.884800 69.247700 -29.702500 21.302800 0.000000 0.000000 0.000000 0.000000 0.000000 0.000000 -9.519900 0.265400 0.331000 30.865700 0.000000 0.000000 -36.069100 -5.024500 -6.750400 -42.218300 0.000000 0.000000 -3.705300 5.282100 -3.517000 20.933100 0.000000 0.000000 -35.172400 33.793800 15.603000 -63.779600 0.000000 0.000000 
